<svg xmlns="http://www.w3.org/2000/svg" xmlns:xlink="http://www.w3.org/1999/xlink" xmlns:lucid="lucid" width="840" height="320"><g transform="translate(-80 320)" lucid:page-tab-id="0_0"><path d="M100-300h200v40H100z" stroke="#0c7cba" stroke-width="2" fill="#fff"/><use xlink:href="#a" transform="matrix(1,0,0,1,105,-295) translate(64.99853515625006 20.458007812499968)"/><path d="M100-220h200v40H100z" stroke="#0c7cba" stroke-width="2" fill="#fff"/><use xlink:href="#b" transform="matrix(1,0,0,1,105,-215) translate(56.91259765625007 20.458007812499968)"/><path d="M100-140h200v40H100z" stroke="#0c7cba" stroke-width="2" fill="#fff"/><use xlink:href="#c" transform="matrix(1,0,0,1,105,-135) translate(55.59423828125008 20.458007812499968)"/><path d="M100-60h200v40H100z" stroke="#0c7cba" stroke-width="2" fill="#fff"/><use xlink:href="#d" transform="matrix(1,0,0,1,105,-55) translate(72.82080078125004 20.458007812499968)"/><path d="M400-60h200v40H400z" stroke="#de5f85" stroke-width="2" fill="#fff"/><use xlink:href="#e" transform="matrix(1,0,0,1,405,-55) translate(63.798828125000064 20.458007812499968)"/><path d="M302-40h78.5" stroke="#0c7cba" stroke-width="2" fill="none"/><path d="M302.03-39H301v-2h1.03z" fill="#0c7cba"/><path d="M395.76-40l-14.26 4.64v-9.28z" stroke="#0c7cba" stroke-width="2" fill="#0c7cba"/><path d="M200-222v-18.5" stroke="#0c7cba" stroke-width="2" fill="none"/><path d="M201-221h-2v-1.03h2z" fill="#0c7cba"/><path d="M200-255.76l4.64 14.26h-9.28z" stroke="#0c7cba" stroke-width="2" fill="#0c7cba"/><path d="M200-142v-18.5" stroke="#0c7cba" stroke-width="2" fill="none"/><path d="M201-141h-2v-1.03h2z" fill="#0c7cba"/><path d="M200-175.76l4.64 14.26h-9.28z" stroke="#0c7cba" stroke-width="2" fill="#0c7cba"/><path d="M200-62v-18.5" stroke="#0c7cba" stroke-width="2" fill="none"/><path d="M201-61h-2v-1.03h2z" fill="#0c7cba"/><path d="M200-95.76l4.64 14.26h-9.28z" stroke="#0c7cba" stroke-width="2" fill="#0c7cba"/><path d="M700-60h200v40H700z" stroke="#7ab648" stroke-width="2" fill="#fff"/><use xlink:href="#f" transform="matrix(1,0,0,1,705,-55) translate(75.76953125000004 20.458007812499968)"/><path d="M700-220h200v40H700z" stroke="#7ab648" stroke-width="2" fill="#fff"/><use xlink:href="#g" transform="matrix(1,0,0,1,705,-215) translate(66.36962890625006 22.520507812499968)"/><path d="M700-300h200v40H700z" stroke="#7ab648" stroke-width="2" fill="#fff"/><use xlink:href="#h" transform="matrix(1,0,0,1,705,-295) translate(76.24853515625004 22.520507812499968)"/><path d="M698-40h-78.5" stroke="#7ab648" stroke-width="2" fill="none"/><path d="M699-39h-1.03v-2H699z" fill="#7ab648"/><path d="M604.24-40l14.26-4.64v9.28z" stroke="#7ab648" stroke-width="2" fill="#7ab648"/><path d="M800-222v-18.5" stroke="#7ab648" stroke-width="2" fill="none"/><path d="M801-221h-2v-1.03h2z" fill="#7ab648"/><path d="M800-255.76l4.64 14.26h-9.28z" stroke="#7ab648" stroke-width="2" fill="#7ab648"/><path d="M800-62v-98.5" stroke="#7ab648" stroke-width="2" fill="none"/><path d="M801-61h-2v-1.03h2z" fill="#7ab648"/><path d="M800-175.76l4.64 14.26h-9.28z" stroke="#7ab648" stroke-width="2" fill="#7ab648"/><defs><path d="M1186 0H975L524-698 385-584V0H199v-1462h186v731l121-168 452-563h209L647-825" id="i"/><path d="M528-1118c261 0 396 106 396 366V0H793l-37-152h-8C675-50 588 23 412 20 205 16 94-97 94-307c0-109 39-193 116-252s194-91 351-96l184-7c13-190-36-305-217-305-119 0-209 41-292 82l-64-137c93-49 217-96 356-96zM283-305c0 117 66 178 176 178 189 0 281-117 284-311v-99c-222 12-460-2-460 232" id="j"/><path d="M371-324c1 116 27 195 135 195 53 0 108-9 149-21v138C608 8 544 19 477 20c-210 0-290-128-289-344v-637H33v-81l155-78 78-230h105v252h276v137H371v637" id="k"/><path d="M356 0H174v-1556h182V0" id="l"/><path d="M113-551c0-340 147-567 481-567 325 0 475 233 475 567 0 342-147 571-481 571-325 0-475-235-475-571zm477-416c-231 0-289 166-289 416s60 420 291 420 289-170 289-420c0-251-60-416-291-416" id="m"/><path d="M514-1118c47 0 108 8 143 20h363v113l-197 27c38 48 67 125 66 213-4 257-181 374-455 348-45 28-94 61-94 131 0 77 74 84 152 84h176c211 2 338 93 338 297 0 293-238 377-543 377-242 0-426-75-426-306C37 22 143-50 276-84c-52-23-98-81-96-154 3-105 57-142 133-192-112-51-190-152-190-309 0-250 139-376 391-379zM424-18c-132 0-215 62-215 198 0 137 110 174 254 174 124 0 217-20 279-58s92-93 92-165C834-67 606-18 424-18zm82-969c-142 0-205 90-205 242 0 146 68 227 207 227 142 0 203-80 203-230 0-154-61-239-205-239" id="n"/><g id="a"><use transform="matrix(0.008789062499999983,0,0,0.008789062499999983,0,0)" xlink:href="#i"/><use transform="matrix(0.008789062499999983,0,0,0.008789062499999983,10.423828124999979,0)" xlink:href="#j"/><use transform="matrix(0.008789062499999983,0,0,0.008789062499999983,19.977539062499957,0)" xlink:href="#k"/><use transform="matrix(0.008789062499999983,0,0,0.008789062499999983,26.077148437499943,0)" xlink:href="#j"/><use transform="matrix(0.008789062499999983,0,0,0.008789062499999983,35.63085937499992,0)" xlink:href="#l"/><use transform="matrix(0.008789062499999983,0,0,0.008789062499999983,40.289062499999915,0)" xlink:href="#m"/><use transform="matrix(0.008789062499999983,0,0,0.008789062499999983,50.67773437499989,0)" xlink:href="#n"/></g><path d="M1055 0L895-453H350L188 0H0l537-1468h170L1245 0h-190zM836-618c-73-216-155-421-215-650-57 231-141 432-211 650h426" id="o"/><path d="M356-954c63-96 155-164 314-164 308 0 417 247 417 567 0 259-75 450-246 535-51 25-108 36-171 36-155-1-249-68-314-159h-12L307 0H174v-1556h182c-2 202 5 412-8 602h8zm0 403c1 237 46 421 281 420 90 0 153-39 199-109 81-124 82-503 0-624-45-67-110-103-201-103-236 0-279 179-279 416" id="p"/><path d="M481-967c-140-5-232 63-189 190 66 110 246 141 360 208 97 57 179 119 179 268C831-65 655 18 414 20 275 21 175-1 90-49v-166c89 44 194 82 324 86 154 5 272-60 229-214-87-145-336-165-454-283-49-49-83-106-83-201 0-211 164-288 381-291 135-2 236 33 330 76l-63 147c-79-33-167-68-273-72" id="q"/><path d="M860-39C784 1 712 22 594 20c-333-6-481-218-481-563 0-354 148-568 489-575 100-2 211 26 277 59l-54 154c-63-26-137-53-223-53-235 0-301 158-301 413 0 251 67 400 293 406 107 3 193-30 266-62v162" id="r"/><path d="M674-1118c257 0 369 132 368 401V0H860v-707c-1-164-59-259-217-260-230-2-287 167-287 398V0H174v-1556h182c-2 202 6 416-8 606h10c61-100 160-168 316-168" id="s"/><path d="M674-1118c257 0 369 132 368 401V0H860v-707c-1-164-59-259-217-260-230-2-287 167-287 398V0H174v-1098h148l26 148h10c61-100 160-168 316-168" id="t"/><path d="M356 0H174v-1098h182V0zm-90-1280c-65 0-106-43-106-115 0-74 40-114 106-114 70 0 105 42 107 114 2 71-44 115-107 115" id="u"/><g id="b"><use transform="matrix(0.008789062499999983,0,0,0.008789062499999983,0,0)" xlink:href="#o"/><use transform="matrix(0.008789062499999983,0,0,0.008789062499999983,10.942382812499979,0)" xlink:href="#p"/><use transform="matrix(0.008789062499999983,0,0,0.008789062499999983,21.489257812499957,0)" xlink:href="#q"/><use transform="matrix(0.008789062499999983,0,0,0.008789062499999983,29.610351562499943,0)" xlink:href="#r"/><use transform="matrix(0.008789062499999983,0,0,0.008789062499999983,37.94238281249992,0)" xlink:href="#s"/><use transform="matrix(0.008789062499999983,0,0,0.008789062499999983,48.54199218749991,0)" xlink:href="#t"/><use transform="matrix(0.008789062499999983,0,0,0.008789062499999983,59.141601562499886,0)" xlink:href="#u"/><use transform="matrix(0.008789062499999983,0,0,0.008789062499999983,63.79980468749988,0)" xlink:href="#k"/><use transform="matrix(0.008789062499999983,0,0,0.008789062499999983,70.07519531249987,0)" xlink:href="#k"/></g><path d="M385 0H199v-1462h759v164H385v516h535v164H385V0" id="v"/><path d="M352-897c71-121 155-243 362-219 24 3 45 5 62 8l-24 168c-258-57-396 105-396 348V0H174v-1098h148l22 201h8" id="w"/><path d="M944-53C850-7 748 24 608 20c-333-9-495-220-495-561 0-264 92-451 269-538 104-51 258-51 363-3 158 72 246 228 248 455v113H301c6 236 86 371 309 375 139 2 240-31 334-76v162zM797-662c-2-176-59-305-234-305-171 0-246 129-258 305h492" id="x"/><g id="c"><use transform="matrix(0.008789062499999983,0,0,0.008789062499999983,0,0)" xlink:href="#v"/><use transform="matrix(0.008789062499999983,0,0,0.008789062499999983,8.841796874999982,0)" xlink:href="#w"/><use transform="matrix(0.008789062499999983,0,0,0.008789062499999983,15.846679687499968,0)" xlink:href="#j"/><use transform="matrix(0.008789062499999983,0,0,0.008789062499999983,25.40039062499995,0)" xlink:href="#n"/><use transform="matrix(0.008789062499999983,0,0,0.008789062499999983,34.72558593749993,0)" xlink:href="#x"/><use transform="matrix(0.008789062499999983,0,0,0.008789062499999983,44.35839843749991,0)" xlink:href="#t"/><use transform="matrix(0.008789062499999983,0,0,0.008789062499999983,54.958007812499886,0)" xlink:href="#q"/><use transform="matrix(0.008789062499999983,0,0,0.008789062499999983,63.07910156249987,0)" xlink:href="#x"/><use transform="matrix(0.008789062499999983,0,0,0.008789062499999983,72.71191406249986,0)" xlink:href="#k"/></g><g id="d"><use transform="matrix(0.008789062499999983,0,0,0.008789062499999983,0,0)" xlink:href="#v"/><use transform="matrix(0.008789062499999983,0,0,0.008789062499999983,8.841796874999982,0)" xlink:href="#w"/><use transform="matrix(0.008789062499999983,0,0,0.008789062499999983,15.846679687499968,0)" xlink:href="#j"/><use transform="matrix(0.008789062499999983,0,0,0.008789062499999983,25.40039062499995,0)" xlink:href="#n"/><use transform="matrix(0.008789062499999983,0,0,0.008789062499999983,34.72558593749993,0)" xlink:href="#x"/></g><path d="M563-131c230 1 287-166 287-397v-570h182V0H885l-27-147h-10C788-46 687 18 532 20c-259 3-368-141-368-401v-717h182v707c0 164 60 259 217 260" id="y"/><g id="e"><use transform="matrix(0.008789062499999983,0,0,0.008789062499999983,0,0)" xlink:href="#o"/><use transform="matrix(0.008789062499999983,0,0,0.008789062499999983,10.942382812499979,0)" xlink:href="#k"/><use transform="matrix(0.008789062499999983,0,0,0.008789062499999983,17.217773437499964,0)" xlink:href="#k"/><use transform="matrix(0.008789062499999983,0,0,0.008789062499999983,23.31738281249995,0)" xlink:href="#w"/><use transform="matrix(0.008789062499999983,0,0,0.008789062499999983,30.498046874999936,0)" xlink:href="#u"/><use transform="matrix(0.008789062499999983,0,0,0.008789062499999983,35.15624999999993,0)" xlink:href="#p"/><use transform="matrix(0.008789062499999983,0,0,0.008789062499999983,45.70312499999991,0)" xlink:href="#y"/><use transform="matrix(0.008789062499999983,0,0,0.008789062499999983,56.302734374999886,0)" xlink:href="#k"/></g><path d="M809-1462h197c102 393 215 775 308 1176 6 31 11 60 15 85 56-451 176-840 262-1261h199L1423 0h-188c-109-417-232-820-328-1251C818-820 697-417 594 0H406L20-1462h197c81 329 169 652 245 984 20 88 34 185 46 277 65-455 201-841 301-1261" id="z"/><g id="f"><use transform="matrix(0.008789062499999983,0,0,0.008789062499999983,0,0)" xlink:href="#z"/><use transform="matrix(0.008789062499999983,0,0,0.008789062499999983,15.547851562499968,0)" xlink:href="#x"/><use transform="matrix(0.008789062499999983,0,0,0.008789062499999983,25.18066406249995,0)" xlink:href="#w"/><use transform="matrix(0.008789062499999983,0,0,0.008789062499999983,32.361328124999936,0)" xlink:href="#k"/></g><path d="M561-1462c316 1 514 118 514 428 0 320-205 463-540 465H385V0H199v-1462h362zm322 438c-3-205-121-279-338-279H385v576h129c227 2 372-71 369-297" id="A"/><path d="M356 158c-1 205-86 331-290 334-58 0-97-8-134-25V319c35 13 67 21 115 21 98-1 127-68 127-170v-1268h182V158zm-90-1438c-65 0-106-43-106-115 0-74 40-114 106-114 70 0 105 42 107 114 2 71-44 115-107 115" id="B"/><path d="M342-567c141-179 285-354 428-531h211L580-623 1008 0H799L463-504l-109 82V0H174v-1556h180c-3 332 10 680-16 989h4" id="C"/><g id="g"><use transform="matrix(0.008789062499999983,0,0,0.008789062499999983,0,0)" xlink:href="#A"/><use transform="matrix(0.008789062499999983,0,0,0.008789062499999983,10.371093749999979,0)" xlink:href="#w"/><use transform="matrix(0.008789062499999983,0,0,0.008789062499999983,17.551757812499964,0)" xlink:href="#m"/><use transform="matrix(0.008789062499999983,0,0,0.008789062499999983,27.940429687499943,0)" xlink:href="#B"/><use transform="matrix(0.008789062499999983,0,0,0.008789062499999983,32.598632812499936,0)" xlink:href="#x"/><use transform="matrix(0.008789062499999983,0,0,0.008789062499999983,42.231445312499915,0)" xlink:href="#C"/><use transform="matrix(0.008789062499999983,0,0,0.008789062499999983,51.1611328124999,0)" xlink:href="#k"/></g><path d="M719-143c233-2 340-141 340-369v-952h186v948c-10 341-189 536-536 536-344 0-525-198-525-540v-942h187v952c0 232 114 369 348 367" id="D"/><g id="h"><use transform="matrix(0.008789062499999983,0,0,0.008789062499999983,0,0)" xlink:href="#D"/><use transform="matrix(0.008789062499999983,0,0,0.008789062499999983,12.568359374999975,0)" xlink:href="#q"/><use transform="matrix(0.008789062499999983,0,0,0.008789062499999983,20.68945312499996,0)" xlink:href="#x"/><use transform="matrix(0.008789062499999983,0,0,0.008789062499999983,30.322265624999936,0)" xlink:href="#w"/></g></defs></g></svg>